<svg xmlns="http://www.w3.org/2000/svg" width="28.5cm" height="6.12cm" viewBox="0 0 807.89 173.53">
  <defs>
    <style>
      .cls-1 {
        fill: #242120;
      }

      .cls-2 {
        fill: #4ec5ff;
      }

      .cls-3 {
        fill: #fff;
      }
    </style>
  </defs>
  <g id="Capa_2" data-name="Capa 2">
    <rect class="cls-1" x="-7.52" y="-8.62" width="824.15" height="191.34"/>
    <g>
      <g>
        <path class="cls-2" d="M133.81,92.66v42.41H118.33V92.66c0-9.74-4-17-15.9-17-9.89,0-22.64,7.31-22.78,25.07v34.39H64.17V63.43H79.65V76C85,68,93.54,62.43,104,62.43,128.08,62.43,133.81,78.19,133.81,92.66Z"/>
        <polygon class="cls-2" points="37.51 63.39 64.27 63.52 64.27 37.87 37.51 63.39"/>
      </g>
      <g>
        <g>
          <path class="cls-3" d="M440.7,86.64H425.51c.29-6.59-3.15-11-10.17-11-8.31,0-18.48,7.45-18.48,25.36v34.1H381.38V63.43h15.48V75.61C401,67.58,408,62,416.92,62,435.26,62,441.56,74,440.7,86.64Z"/>
          <path class="cls-3" d="M482.25,74.61c-14.47,0-23.5,9.6-23.5,25.36s10.89,23.78,22.5,23.78c13,0,17.77-7.59,20.63-16l14,5.59c-4.58,14.76-16.76,23.5-34.67,23.5C461.33,136.79,443,124.47,443,100c0-24.65,16.91-38.12,39.26-38.12,17.05,0,28.66,7.45,33.1,20.06l-13.18,7.31C498.87,78.19,491.85,74.61,482.25,74.61Z"/>
          <path class="cls-3" d="M593.58,92.66v42.41H578.1V92.66c0-9.74-4-17-15.9-17-9.89,0-22.64,7.31-22.78,25.07v34.39H523.94V34.77h15.48V76c5.3-8,13.89-13.61,24.35-13.61C587.85,62.43,593.58,78.19,593.58,92.66Z"/>
          <path class="cls-3" d="M606.9,50.25V34.77h15.47V50.25Zm0,84.82V63.43h15.47v71.64Z"/>
          <path class="cls-3" d="M646.16,63.43l22.21,55.31,22.21-55.31h15.47l-28.8,71.64H659.48l-28.8-71.64Z"/>
          <path class="cls-3" d="M770.38,90.22v44.85H754.91v-9.6c-4.45,6.59-11.9,11.32-22.79,11.32-17.48,0-27.08-8.74-27.08-21.78,0-10.89,7.6-19.48,30-21.49,13.61-1.29,19.49-5,19.49-10.32a8.59,8.59,0,0,0-.29-2c-1.15-4.59-4.73-7.31-12-7.31-12.75,0-14.61,11.17-13.9,12.89l-17-.14a13.33,13.33,0,0,1-.43-3.29c0-11.61,13.62-21.35,29.66-21.35C767.8,62,770.38,78.62,770.38,90.22ZM754.91,102.4V96.81c-4.88,3.59-11.75,5.59-19.2,6.45-8.46,1-14.48,4.87-14.48,11,0,4.72,2.73,11.46,12.9,11.46C745,125.76,754.91,119,754.91,102.4Z"/>
        </g>
        <path class="cls-3" d="M176.07,136.08c-24.07,0-29.8-15.77-29.8-30.24V63.43h15.47v42.41c0,9.75,4,17,15.91,17,9.88,0,21.35-4.3,21.35-25.36V63.43h15.47v71.64H199V125.9C194,132.64,185.81,136.08,176.07,136.08Z"/>
        <path class="cls-3" d="M299.72,99c0,21.21-14.19,37.55-35.68,37.55-9.6,0-16.19-3.73-20.78-9.17v7.73H227.79l-.14-100.3h15.61V70.88c4.59-5.44,11.18-9.17,20.78-9.17C285.53,61.71,299.72,77.9,299.72,99ZM284.1,99c0-13.32-8-23.64-20.06-23.64-12.46,0-22.35,8.89-22.35,23.64,0,15.05,9.89,23.79,22.35,23.79C276.08,122.75,284.1,112.58,284.1,99Z"/>
        <path class="cls-3" d="M369.64,90.22v44.85H354.16v-9.6c-4.44,6.59-11.89,11.32-22.78,11.32-17.48,0-27.08-8.74-27.08-21.78,0-10.89,7.6-19.48,29.95-21.49,13.61-1.29,19.48-5,19.48-10.32a8.61,8.61,0,0,0-.28-2c-1.15-4.59-4.73-7.31-12-7.31-12.75,0-14.61,11.17-13.9,12.89l-17.05-.14a13.33,13.33,0,0,1-.43-3.29C310,71.74,323.65,62,339.69,62,367.06,62,369.64,78.62,369.64,90.22ZM354.16,102.4V96.81c-4.87,3.59-11.74,5.59-19.2,6.45-8.45,1-14.47,4.87-14.47,11,0,4.72,2.73,11.46,12.9,11.46C344.28,125.76,354.16,119,354.16,102.4Z"/>
      </g>
    </g>
  </g>
</svg>
